<svg xmlns="http://www.w3.org/2000/svg" width="23.848" height="18.54" viewBox="0 0 23.848 18.54">
  <g id="Group_192" data-name="Group 192" transform="translate(-710.327 -1943.672)">
    <path id="Path_98" data-name="Path 98" d="M716.278,3063.675a4.817,4.817,0,0,0,.036,1.757,6.754,6.754,0,0,0,.8,2.138c.168.3.315.631.5.9a6.628,6.628,0,0,0,.668.827c.369.393.746.77,1.133,1.122a3.82,3.82,0,0,0,.6.393,11.292,11.292,0,0,0,1.254.757,11.555,11.555,0,0,0,2.253.81,15.4,15.4,0,0,0,1.615.217c.283.03.558.1.842.12.089.006.2-.092.3-.141.03-.014.074-.051.087-.032.108.157.279.014.409.055a1.345,1.345,0,0,0,.981-.158.254.254,0,0,1,.143-.035c.455.092.948-.212,1.423-.324.181-.043.359-.057.54-.095a.99.99,0,0,0,.29-.1c.258-.144.516-.313.774-.457.171-.095.344-.146.514-.251s.346-.253.518-.384a2.932,2.932,0,0,0,.584-.463,13.709,13.709,0,0,0,1.333-1.814c.153-.264.265-.578.418-.814a5.968,5.968,0,0,0,.462-1.564c.012-.038.01-.085.023-.122.022-.061.051-.117.078-.175-.005.058-.011.116-.014.174s0,.1,0,.154a1.118,1.118,0,0,0,.066-.183c.073-.391.141-.783.213-1.174a.232.232,0,0,1,.039-.064c.009.019.027.034.026.056-.019.252.094.155.167.093.116-.1.036-.206.036-.307,0-.026-.021-.042-.022-.068,0-.073,0-.149,0-.223a.654.654,0,0,1,.088.1,1.685,1.685,0,0,1,.237.785c.012.172.1.36-.111.509a.442.442,0,0,0-.043.143c-.041.172-.081.345-.121.517-.019.081-.037.161-.055.242.036-.047.072-.114.108-.131.02-.009.063.072.056.1a2.315,2.315,0,0,1-.123.348c-.327.707-.653,1.414-.988,2.112-.1.2-.223.374-.33.566a2.269,2.269,0,0,1-.223.429c-.328.31-.611.752-.924,1.1a3.257,3.257,0,0,1-.413.383c-.024.019-.062-.074-.093-.115.026-.037.051-.092.077-.107.054-.03.109-.026.163-.059.027-.016.052-.083.077-.127-.024-.021-.053-.074-.07-.058-.2.177-.39.363-.583.552-.014.013-.017.07-.026.107.023,0,.046.01.067-.006.036-.026.069-.085.1-.1s.055.021.082.034a.457.457,0,0,1-.055.122c-.154.121-.309.237-.465.343-.025.017-.055-.022-.083-.035.029-.036.056-.074.086-.107s.082-.09.124-.134c-.046-.007-.092-.039-.138-.016a2.206,2.206,0,0,0-.31.2.312.312,0,0,0-.007.134c.014.035.05.041.077.06a.669.669,0,0,1-.117.116c-.429.237-.857.483-1.286.7a4.639,4.639,0,0,1-.849.338c-.522.137-1.041.238-1.559.344-.221.046-.44.073-.659.1-.083.01-.208.122-.2-.13,0-.007-.04-.009-.042,0-.1.324-.252.211-.359.225a5.711,5.711,0,0,1-.975.03c-.454-.017-.9-.06-1.356-.088-.154-.01-.309-.012-.465-.012-.12,0-.124-.154-.119-.311.007-.181-.057-.177-.117-.055-.169.349-.326.22-.458.179a3.923,3.923,0,0,0-.77-.221,2.476,2.476,0,0,1-.754-.3c-.1-.045-.172-.174-.273-.186a.721.721,0,0,0-.381.106c-.062.033-.121.119-.086-.053.047-.237-.027-.242-.127-.229-.064.008-.145.034-.184-.016-.131-.166-.309-.165-.471-.224a1.848,1.848,0,0,1-.3-.21c-.26-.168-.527-.316-.78-.5a3.668,3.668,0,0,1-.43-.412,9.847,9.847,0,0,0-.874-.872,1.109,1.109,0,0,1-.294-.409c-.037-.074-.106-.1-.163-.144a.051.051,0,0,0-.059.018.906.906,0,0,0-.028.134,1.984,1.984,0,0,1-.1-.227c.1-.165.013-.208-.02-.259-.163-.258-.335-.5-.5-.756a.362.362,0,0,1-.039-.16c-.017-.221-.053-.4-.217-.388-.016,0-.024-.058-.034-.091-.039-.121.022-.4-.162-.292-.012.007-.043-.078-.039-.088.123-.246.005-.316-.062-.335-.111-.032-.145-.161-.188-.291a6.191,6.191,0,0,0-.214-.634,3.346,3.346,0,0,1-.08-1.072,4.165,4.165,0,0,1,.039-.818,12.756,12.756,0,0,1,.241-1.411,25.071,25.071,0,0,1,.953-2.739,4.63,4.63,0,0,1,.342-.642,8.381,8.381,0,0,1,1.573-1.992,9.915,9.915,0,0,1,2.544-1.628,6.671,6.671,0,0,1,.781-.262c.156-.055.315-.142.469-.183a1.109,1.109,0,0,1,.3,0,.17.17,0,0,0,.106-.021,1.065,1.065,0,0,1,1.016-.21c.026.01.057.037.079.018.359-.321.673-.166,1.008-.239.024-.005.064-.021.068,0,.1.456.41.077.611.124a9.951,9.951,0,0,0,1.312.08,4.526,4.526,0,0,1,.686.191,3.9,3.9,0,0,0,.437.075c.023,0,.055-.03.083-.047a.754.754,0,0,1-.045-.084c-.016-.041-.028-.087-.042-.13a.532.532,0,0,1,.1-.081.682.682,0,0,1,.757.2,2.678,2.678,0,0,1,.249.394c.12.179.361.1.505-.185.022-.043.082-.084.1-.071.2.111.426.132.564.406.035.069.132.071.205.049.293-.09.509.109.739.233a4.546,4.546,0,0,1,.914.653,2.909,2.909,0,0,1,.728.881c.193.4.465.663.646,1.077a2.771,2.771,0,0,1,.219.591,2.045,2.045,0,0,1-.064.522c0,.015-.041.05-.045.044a.136.136,0,0,1-.029-.085,1.707,1.707,0,0,0-.237-.9,4.871,4.871,0,0,0-.278-.613,3.421,3.421,0,0,0-.438-.555c-.186-.2-.386-.364-.582-.537a.563.563,0,0,0-.148-.073.977.977,0,0,0,.1.2c.177.193.364.365.536.566a.758.758,0,0,1,.242.412,1.562,1.562,0,0,0,.209.6c.077.159.176.285.26.435a.773.773,0,0,1,.076.219c.02.1.021.232.129.149.006-.005.014-.01.017-.007s.046.03.045.055c0,.181-.012.364-.019.546a1.071,1.071,0,0,1-.124-.09.619.619,0,0,1-.072-.1,2.181,2.181,0,0,0-.029.218c0,.045.037.08.03.118a1.83,1.83,0,0,1-.075.231c-.033-.022-.085-.024-.1-.069a2.738,2.738,0,0,1-.03-.3.222.222,0,0,0-.033-.071.482.482,0,0,0-.031.1c-.007.112-.009.222-.013.332a1.618,1.618,0,0,1-.048-.3.676.676,0,0,0-.16-.449c-.213-.317-.393-.7-.618-.989a4.62,4.62,0,0,0-1.211-1.11c-.073-.046-.123-.157-.2-.2-.248-.138-.5-.269-.756-.381a6.309,6.309,0,0,0-.818-.3c-.489-.137-.981-.265-1.481-.36a2.009,2.009,0,0,0-.566.067.081.081,0,0,1-.06-.03,1.218,1.218,0,0,0-.9-.221c-.235-.011-.475,0-.714.007-.142.006-.309.095-.425.029s-.256.031-.377.017a1.318,1.318,0,0,0-.393-.035c-.317.054-.638.143-.957.21a.694.694,0,0,1-.369.034c-.1-.04-.178.009-.283.065a3.045,3.045,0,0,1-.52.136,9.562,9.562,0,0,0-2.484,1.14c-.379.263-.76.512-1.134.813a5,5,0,0,0-1.4,1.842,11.926,11.926,0,0,0-.751,2.137C716.311,3063.367,716.3,3063.523,716.278,3063.675Zm4.012,7.743-.1.046a.424.424,0,0,0,.035.1c.06.08.126.15.187.229.146.187.4.024.538.236.024.037.089,0,.134,0a.167.167,0,0,1,.092.027,2.073,2.073,0,0,0,.252.2c.038.02.1-.037.154-.059-.025-.053-.04-.132-.075-.154-.2-.127-.408-.249-.617-.357S720.481,3071.5,720.29,3071.418Zm2.694,1.347c.014-.016.043-.036.05-.063a.167.167,0,0,0,0-.1.453.453,0,0,0-.158-.108c-.132-.038-.295.029-.372-.189-.012-.036-.081-.036-.113,0-.114.118-.166.033-.224-.057-.021-.033-.05-.088-.075-.075a1.874,1.874,0,0,0-.225.162c.009.02.015.049.028.056a1.773,1.773,0,0,0,.26.12C722.424,3072.594,722.7,3072.676,722.984,3072.765Zm.857-16.5c-.2.034-.378.062-.556.095-.019,0-.041.034-.061.053.012.011.022.034.036.033.29-.015.579-.032.87-.054.028,0,.062-.047.093-.072-.022-.027-.041-.075-.069-.075C724.044,3056.239,723.932,3056.253,723.841,3056.26Z" transform="translate(-5.034 -1111.709)" fill="#fff"/>
    <path id="Path_99" data-name="Path 99" d="M723.794,3062.589a.672.672,0,0,0,.042.148c.013.043.028.087.04.13.034.119-.088.251.058.364.035.026-.078.095.036.126l-.007.01c-.185.034-.032.087-.026.129s.073.069.059.093c-.084.143,0,.265.045.4a1.622,1.622,0,0,1,.05.52c0,.36,0,.721-.014,1.081-.015.389-.042.777-.07,1.165,0,.066-.045.132-.053.2-.028.223-.028.447-.077.668-.073.328-.173.654-.274.979a.7.7,0,0,1-.172.338c-.128.115-.01.094.089.092.333-.007.667-.025,1-.027h.022l-.518.078a3.874,3.874,0,0,0-1.447.507.162.162,0,0,1,.005-.158.782.782,0,0,1,.129-.146c.047-.048.083-.078-.052-.1-.22-.034-.288-.074-.271-.243.015-.141.005-.282.023-.423.059-.45.131-.9.188-1.351.054-.419.1-.838.139-1.257.022-.232.025-.463.033-.7.01-.262.024-.524.019-.785,0-.2-.039-.39-.048-.586-.011-.25-.007-.5-.014-.751-.009-.352-.039-.7-.026-1.057a.833.833,0,0,1,.148-.591.232.232,0,0,1,.333-.035c.053.046.063.084.086-.006.027.006.071.007.078.018.038.061.067.125.1.187s.053.1.174.077a.123.123,0,0,1,.09.056,1.822,1.822,0,0,1,.061.325C723.785,3062.239,723.783,3062.414,723.794,3062.589Z" transform="translate(-5.034 -1111.709)" fill="#fff"/>
    <path id="Path_100" data-name="Path 100" d="M727.585,3066.738c-.024.019-.047.04-.073.057a.4.4,0,0,1-.059.032c-.006-.034-.015-.07-.018-.1,0-.013.013-.018.02-.026l.031-.036a.389.389,0,0,0-.069,0c-.019.005-.024.025-.046.024-.078,0-.1.022,0,.124a.084.084,0,0,1,.007.1c-.067.062-.148.112-.221.168q-.252.19-.5.383c-.026.02-.05.032-.113-.044a.132.132,0,0,0-.061-.029c-.015,0-.027.019-.019.03.031.038.072.077.109.115-.042-.006-.086-.015-.125-.017a.019.019,0,0,0-.018.026c.051.155-.09.167-.153.235a2.727,2.727,0,0,1-.377.3.087.087,0,0,1-.077-.007c-.1-.057-.1-.025-.086.028.006.022.009.047,0,.057-.1.089-.2.175-.306.26-.005,0-.026,0-.034,0a.653.653,0,0,0-.12.054c-.027.018-.039.048-.061.07s-.042.021-.054.038-.012.058-.033.074c-.125.1-.25.2-.386.294a.588.588,0,0,1-.175.034c-.014,0-.027.012-.025.026.013.106-.057.146-.153.159a.264.264,0,0,0-.128.044,5.542,5.542,0,0,1-.568.363c-.054.032-.138.036-.2.063-.192.086-.388.169-.565.269-.1.056-.275-.026-.433-.071a.17.17,0,0,1-.047-.059,2.126,2.126,0,0,1,.052-.3c.02-.069-.06-.171-.1-.26-.019-.045-.057-.109-.04-.125a3.255,3.255,0,0,1,.319-.246c.074-.052.163-.09.235-.143.1-.078.166-.192.3-.238s.118-.223.372-.144l.007-.005c-.06-.124.06-.117.1-.171a.86.86,0,0,1,.167-.156c.071-.058.3.021.224-.164l.005-.006c.054-.044.107-.088.164-.13a.059.059,0,0,1,.058-.006c.109.07.08.009.089-.023.026-.084.074-.145.219-.125.054.007.08-.034.1-.065.044-.063.074-.136.114-.2.017-.027.08-.025,0-.109-.011-.011-.009-.042,0-.04.1.02,0-.167.2-.05.129-.046.241-.1.222-.267,0-.023.014-.036.021-.053.015.021.029.042.045.062a.062.062,0,0,0,.02.016c.075.037.152.016.143-.037a.431.431,0,0,1,0-.079.07.07,0,0,1,.014-.03c-.016,0-.032,0-.049,0a.116.116,0,0,1-.027-.008l-.008-.031c.074.019.013-.129.177,0a.075.075,0,0,0,.06,0c.033-.018.072-.032.086-.064s-.006-.091,0-.13a.3.3,0,0,1,.054-.089c.009.009.026.022.026.026.017.11.061.063.1.06s.126.012.12-.015c-.013-.049-.014-.065.058-.035.016.007.026-.023.027-.043.006-.064-.052-.178.12-.1.015.006.023-.024.023-.044s-.034-.051-.028-.058.044-.018.067-.026l-.092-.039-.01-.009c.024-.032.049-.063.074-.095.106.1.052,0,.076,0a.183.183,0,0,0,.087-.025c.048-.032.14-.031.1-.135-.005-.01.02-.02.034-.013a.306.306,0,0,1,.074.056c.016.071.052.055.07.045a.042.042,0,0,0,.019-.054c-.034-.083.043-.051.1-.037.02,0,.042,0,.048,0s0-.049.012-.057c.047-.023.046-.058-.048-.136-.016-.014-.017-.041-.025-.062a.355.355,0,0,1,.076.035c.086.1.12.094.14.046a.062.062,0,0,1,.053-.03c.078-.006.086-.045-.017-.146-.051-.05-.066-.085-.008-.084a.048.048,0,0,0,.045-.037c.012-.031.025,0,.063.021.117.07.095-.076.249.025.009.005.024-.013.035-.021l-.006-.012c-.01-.036-.02-.071-.031-.107s-.045-.1.072-.009c.084.064.132.059.082-.027-.013-.022-.035-.049-.035-.063,0-.04-.012-.11.023-.1.063.009.2.107.123-.027h.022a.59.59,0,0,0,.144-.164c.025-.062,0-.156.16-.1a.057.057,0,0,0-.009-.033c-.044-.071-.017-.092.06-.06.045.018.107.039.122.026a.681.681,0,0,0,.095-.135c.009-.012.022-.032.043-.024.123.046.09-.076.207-.036.01,0,.013-.025.005-.043-.036-.075-.051-.121.073,0,.005,0,.036.01.035,0-.009-.052.066-.047,0-.144-.043-.063.013-.113.029-.165,0-.008.027-.007.043,0,.089.046.075.038.086-.007s.03-.108.086-.1c.126.029.143-.024.157-.089a.088.088,0,0,1,.048-.06.422.422,0,0,1,.1-.029l.092-.022c.013,0,.031,0,.033-.015s-.016-.079.009-.084c.123-.024.121-.17.318-.124a.016.016,0,0,0,.018-.023c-.037-.089.033-.087.109-.075.055.009.093.013.062-.05a.039.039,0,0,1,.014-.048,2.281,2.281,0,0,1,.2-.151c.059-.039.133-.066.193-.1a.855.855,0,0,0,.2-.148c.079-.091.076-.249.275-.241.02,0,.019-.026.034-.034.107-.062.214-.123.323-.183a1.683,1.683,0,0,0,.294-.164,1.08,1.08,0,0,1,.565-.27.109.109,0,0,0,.067-.038.537.537,0,0,1,.382-.247.152.152,0,0,0,.119-.06c.056-.095.218-.09.312-.149.075-.047.177-.07.256-.112.25-.134.486-.28.743-.406.216-.1.458-.186.682-.283.078-.034.131-.09.209-.122.136-.056.291-.092.422-.151.3-.137.592-.291.9-.422.395-.166.808-.315,1.212-.473.314-.123.623-.253.943-.37a.42.42,0,0,1,.293-.016.817.817,0,0,0,.256.048.376.376,0,0,1,.118.049.829.829,0,0,1,.118.082.863.863,0,0,1,.167.156c.062.127.129.266.05.321a1.488,1.488,0,0,1-.3.155c-.392.153-.793.3-1.185.452-.234.092-.461.192-.685.293-.329.149-.654.3-.98.453-.14.065-.282.128-.421.195-.1.049-.2.1-.3.152s-.166.114-.25.17a.106.106,0,0,1-.036.01,1.317,1.317,0,0,0-.274.052c-.1.045-.173.124-.28.166-.122.048-.191.14-.329.175a2.883,2.883,0,0,0-.547.251c-.013.006-.028.015-.025.031.016.1-.068.108-.158.116-.064.006-.169-.018-.116.091.006.012,0,.023-.017.025-.217.018-.308.154-.465.228-.1.048-.155.142-.277.165a.241.241,0,0,0-.21.176c0,.007-.007.018-.016.015-.165-.061-.209-.008-.215.085,0,.016-.035.023-.061.012-.079-.032-.073,0-.068.044.012.092-.008.158-.148.125-.031-.008-.062,0-.071.011-.074.122-.282.136-.294.308,0,.02-.031.023-.049.033-.095.058-.2.113-.285.175-.2.134-.386.273-.581.409-.027.019-.057.037-.147-.04-.023-.02-.078-.018-.118-.027.019.026.041.053.058.078s.029.045.023.052a.8.8,0,0,1-.125.159,1.751,1.751,0,0,1-.179.118c-.115.078-.178.2-.375.209-.012,0-.008.019-.012.029-.016.035-.021.08-.051.1-.191.149-.388.294-.584.44-.01.007-.034,0-.052,0a.365.365,0,0,0-.022-.056.552.552,0,0,0-.039-.05.688.688,0,0,0-.085.068c-.009.009,0,.032,0,.048.088.042.08.063.053.084-.134.1-.264.213-.4.316-.009.007-.053-.01-.082-.025a1.061,1.061,0,0,1-.1-.068c0,.034-.017.071.01.1.061.065.047.078.017.092a.23.23,0,0,0-.057.037l-.663.579Zm-1.842.6c.032-.029.034-.063-.1-.128-.089-.042-.152-.08-.175-.034,0,.006.015.034.028.043.092.067.106.1.053.113s-.087.017-.107.043.011.071.018.108l.076-.02a.187.187,0,0,0,.029-.011A1.038,1.038,0,0,0,725.743,3067.334Zm2.763-2.135a.07.07,0,0,0,.025-.073c0-.018-.038-.054-.058-.082a.538.538,0,0,0-.105,0c-.012,0,0,.03,0,.046-.022-.021-.046-.042-.065-.063s-.039-.049-.059-.074c-.033.007-.084,0-.093.026s.037.079.074.11c.067.057.172.114.056.113-.005,0,0,.025.01.03a.163.163,0,0,0,.055.031c.018,0,.026-.013.038-.02l-.008-.008A.526.526,0,0,0,728.506,3065.2Zm1.157-1.065.166.1a.867.867,0,0,1,.123.07c.094.08.122.061.147.032.006-.006,0-.022,0-.034-.017-.007-.035-.012-.053-.02l-.114-.05a.456.456,0,0,0-.01-.068c-.012-.041-.028-.083-.042-.126-.037,0-.076,0-.111,0a.575.575,0,0,0-.077.016Zm-.652.287-.021,0a1.154,1.154,0,0,0,.064.155.28.28,0,0,0,.089.076.177.177,0,0,0,.111-.009.119.119,0,0,0,.06-.085c0-.027-.027-.076-.042-.116l-.1-.021C729.13,3064.456,729.175,3064.576,729.011,3064.421Zm-3.18,2.489a.079.079,0,0,0-.04-.011.383.383,0,0,0,.043.1.621.621,0,0,0,.111.12c.014.011.08.01.077-.007-.01-.05.019-.052.074-.04.023.005.031-.023.032-.044a.312.312,0,0,0-.029-.075l-.1-.031C725.994,3067,725.949,3067.011,725.831,3066.91Zm1.39-1.13c.025.008.049.016.075.026a.2.2,0,0,1,.055.029c.011.012.015.034.008.038-.031.02-.068.035-.1.053-.007,0-.006.015-.008.023.014.009.036.027.041.026.077-.012.151-.026.227-.04-.066-.034.087-.084-.1-.111a.1.1,0,0,1-.04-.021c-.087-.076-.087-.077-.137-.047Z" transform="translate(-5.034 -1111.709)" fill="#fff"/>
  </g>
</svg>
