<?xml version="1.0" encoding="iso-8859-1"?>
<!-- Generator: Adobe Illustrator 25.0.1, SVG Export Plug-In . SVG Version: 6.00 Build 0)  -->
<svg version="1.1" id="Layer_1" xmlns="http://www.w3.org/2000/svg" xmlns:xlink="http://www.w3.org/1999/xlink" x="0px" y="0px"
	 viewBox="0 0 511.48 167.31" style="enable-background:new 0 0 511.48 167.31;" xml:space="preserve">
<path d="M511.48,144.7c0,12.49-10.12,22.61-22.61,22.61H22.61C10.12,167.31,0,157.18,0,144.7V22.61C0,10.12,10.12,0,22.61,0h466.26
	c12.48,0,22.61,10.12,22.61,22.61V144.7z"/>
<g id="PLAY_1_">
	<g>
		<defs>
			<path id="SVGID_1_" d="M110.84,73.65L87.78,60.33c0,0-42.02-24.26-44.49-25.69c-2.47-1.43-4.93-0.56-4.93,2.42
				c0,4.96,0,51.8,0,51.8s0,50.62,0,52.85s1.76,3.2,3.9,1.96c2.15-1.24,45.51-26.28,45.51-26.28l23.06-13.31
				c0,0,19.57-11.3,22.17-12.8s2.35-3.56,0.16-4.75C130.97,85.35,110.84,73.65,110.84,73.65z"/>
		</defs>
		<clipPath id="SVGID_2_">
			<use xlink:href="#SVGID_1_"  style="overflow:visible;"/>
		</clipPath>
		
			<linearGradient id="SVGID_3_" gradientUnits="userSpaceOnUse" x1="66.925" y1="133.1398" x2="66.925" y2="19.8398" gradientTransform="matrix(1 0 0 -1 0 165.3498)">
			<stop  offset="0" style="stop-color:#2079B0"/>
			<stop  offset="0.2863" style="stop-color:#4A93B8"/>
			<stop  offset="0.767" style="stop-color:#83BEBF"/>
			<stop  offset="1" style="stop-color:#97CFBF"/>
		</linearGradient>
		<polygon style="clip-path:url(#SVGID_2_);fill:url(#SVGID_3_);" points="38.36,32.21 38.36,88.86 38.36,145.51 95.49,88.86 		"/>
	</g>
	<g>
		<defs>
			<path id="SVGID_4_" d="M110.84,73.65L87.78,60.33c0,0-42.02-24.26-44.49-25.69c-2.47-1.43-4.93-0.56-4.93,2.42
				c0,4.96,0,51.8,0,51.8s0,50.62,0,52.85s1.76,3.2,3.9,1.96c2.15-1.24,45.51-26.28,45.51-26.28l23.06-13.31
				c0,0,19.57-11.3,22.17-12.8s2.35-3.56,0.16-4.75C130.97,85.35,110.84,73.65,110.84,73.65z"/>
		</defs>
		<clipPath id="SVGID_5_">
			<use xlink:href="#SVGID_4_"  style="overflow:visible;"/>
		</clipPath>
		
			<linearGradient id="SVGID_6_" gradientUnits="userSpaceOnUse" x1="38.36" y1="105.0198" x2="110.84" y2="105.0198" gradientTransform="matrix(1 0 0 -1 0 165.3498)">
			<stop  offset="0" style="stop-color:#5ABCAB"/>
			<stop  offset="1" style="stop-color:#E6E99A"/>
		</linearGradient>
		<polygon style="clip-path:url(#SVGID_5_);fill:url(#SVGID_6_);" points="110.84,73.65 87.78,60.33 38.36,31.8 38.36,32.21 
			95.49,88.86 		"/>
	</g>
	<g>
		<defs>
			<path id="SVGID_7_" d="M110.84,73.65L87.78,60.33c0,0-42.02-24.26-44.49-25.69c-2.47-1.43-4.93-0.56-4.93,2.42
				c0,4.96,0,51.8,0,51.8s0,50.62,0,52.85s1.76,3.2,3.9,1.96c2.15-1.24,45.51-26.28,45.51-26.28l23.06-13.31
				c0,0,19.57-11.3,22.17-12.8s2.35-3.56,0.16-4.75C130.97,85.35,110.84,73.65,110.84,73.65z"/>
		</defs>
		<clipPath id="SVGID_8_">
			<use xlink:href="#SVGID_7_"  style="overflow:visible;"/>
		</clipPath>
		
			<linearGradient id="SVGID_9_" gradientUnits="userSpaceOnUse" x1="74.6" y1="76.4898" x2="74.6" y2="19.4198" gradientTransform="matrix(1 0 0 -1 0 165.3498)">
			<stop  offset="0" style="stop-color:#E53432"/>
			<stop  offset="0.1668" style="stop-color:#D73948"/>
			<stop  offset="0.5748" style="stop-color:#B33F72"/>
			<stop  offset="0.8619" style="stop-color:#9A4189"/>
			<stop  offset="1" style="stop-color:#904192"/>
		</linearGradient>
		<polygon style="clip-path:url(#SVGID_8_);fill:url(#SVGID_9_);" points="38.36,145.51 38.36,145.93 87.78,117.39 110.84,104.08 
			95.49,88.86 		"/>
	</g>
	<g>
		<defs>
			<path id="SVGID_10_" d="M110.84,73.65L87.78,60.33c0,0-42.02-24.26-44.49-25.69c-2.47-1.43-4.93-0.56-4.93,2.42
				c0,4.96,0,51.8,0,51.8s0,50.62,0,52.85s1.76,3.2,3.9,1.96c2.15-1.24,45.51-26.28,45.51-26.28l23.06-13.31
				c0,0,19.57-11.3,22.17-12.8s2.35-3.56,0.16-4.75C130.97,85.35,110.84,73.65,110.84,73.65z"/>
		</defs>
		<clipPath id="SVGID_11_">
			<use xlink:href="#SVGID_10_"  style="overflow:visible;"/>
		</clipPath>
		
			<linearGradient id="SVGID_12_" gradientUnits="userSpaceOnUse" x1="116.345" y1="91.6998" x2="116.345" y2="61.2698" gradientTransform="matrix(1 0 0 -1 0 165.3498)">
			<stop  offset="0" style="stop-color:#F18779"/>
			<stop  offset="0.1194" style="stop-color:#F2917A"/>
			<stop  offset="0.7128" style="stop-color:#FABC77"/>
			<stop  offset="1" style="stop-color:#FDCB72"/>
		</linearGradient>
		<polygon style="clip-path:url(#SVGID_11_);fill:url(#SVGID_12_);" points="110.84,73.65 95.49,88.86 110.84,104.08 137.2,88.86 		
			"/>
	</g>
</g>
<g>
	<path style="fill:#F9F9F9;" d="M398.05,111.01c-2.15,0-4.1-0.4-5.88-1.19c-1.77-0.79-3.26-2.01-4.47-3.65h-0.36
		c0.24,1.92,0.36,3.75,0.36,5.47v13.56h-4.99V77.46h4.06l0.69,4.51h0.25c1.28-1.8,2.78-3.11,4.48-3.91s3.66-1.2,5.86-1.2
		c4.37,0,7.74,1.49,10.12,4.48c2.38,2.99,3.56,7.18,3.56,12.57c0,5.41-1.21,9.62-3.62,12.61S402.34,111.01,398.05,111.01z
		 M397.33,81.1c-3.37,0-5.8,0.93-7.3,2.8c-1.5,1.86-2.28,4.83-2.32,8.9v1.11c0,4.63,0.77,7.94,2.32,9.94
		c1.54,1.99,4.02,2.99,7.42,2.99c2.85,0,5.08-1.15,6.69-3.46c1.61-2.3,2.42-5.48,2.42-9.53c0-4.11-0.81-7.26-2.42-9.46
		C402.53,82.19,400.26,81.1,397.33,81.1z"/>
	<path style="fill:#F9F9F9;" d="M423.29,110.41h-4.99V63.63h4.99V110.41z"/>
	<path style="fill:#F9F9F9;" d="M451.98,110.41l-0.99-4.69h-0.24c-1.64,2.07-3.28,3.46-4.92,4.19c-1.63,0.73-3.67,1.1-6.12,1.1
		c-3.27,0-5.83-0.84-7.68-2.53c-1.85-1.68-2.78-4.08-2.78-7.18c0-6.65,5.32-10.14,15.96-10.46l5.59-0.18v-2.04
		c0-2.59-0.56-4.5-1.67-5.73c-1.11-1.23-2.89-1.85-5.34-1.85c-2.75,0-5.85,0.84-9.32,2.53l-1.53-3.82c1.62-0.88,3.4-1.57,5.34-2.07
		c1.93-0.5,3.87-0.75,5.82-0.75c3.93,0,6.84,0.87,8.73,2.62c1.89,1.74,2.84,4.54,2.84,8.39v22.49h-3.69V110.41z M440.71,106.89
		c3.11,0,5.54-0.85,7.32-2.55c1.77-1.7,2.66-4.09,2.66-7.16V94.2l-4.99,0.21c-3.97,0.14-6.83,0.76-8.58,1.85s-2.63,2.79-2.63,5.1
		c0,1.8,0.54,3.18,1.64,4.12C437.21,106.42,438.74,106.89,440.71,106.89z"/>
	<path style="fill:#F9F9F9;" d="M458.58,77.46h5.35l7.22,18.79c1.58,4.29,2.57,7.39,2.95,9.29h0.24c0.26-1.02,0.81-2.77,1.64-5.25
		c0.83-2.48,3.55-10.08,8.16-22.83h5.35l-14.16,37.52c-1.4,3.71-3.04,6.34-4.92,7.89c-1.87,1.55-4.17,2.33-6.9,2.33
		c-1.52,0-3.03-0.17-4.51-0.51v-4c1.1,0.24,2.34,0.36,3.7,0.36c3.43,0,5.87-1.92,7.34-5.77l1.83-4.69L458.58,77.46z"/>
</g>
<g>
	<path style="fill:#F9F9F9;" d="M305.6,80.52c1.58,1.31,4.89,4.07,4.89,9.31c0,5.1-2.89,7.51-5.79,9.79
		c-0.9,0.89-1.93,1.86-1.93,3.38c0,1.51,1.03,2.34,1.79,2.96l2.48,1.93c3.03,2.55,5.79,4.9,5.79,9.65c0,6.48-6.27,13.02-18.12,13.02
		c-10,0-14.82-4.75-14.82-9.86c0-2.48,1.24-5.99,5.31-8.41c4.27-2.62,10.06-2.96,13.16-3.17c-0.97-1.24-2.07-2.55-2.07-4.68
		c0-1.17,0.35-1.86,0.69-2.69c-0.76,0.07-1.52,0.14-2.21,0.14c-7.3,0-11.44-5.45-11.44-10.82c0-3.17,1.45-6.69,4.41-9.24
		c3.93-3.24,8.62-3.79,12.34-3.79h14.19l-4.41,2.48H305.6z M300.71,111.12c-0.55-0.07-0.9-0.07-1.58-0.07
		c-0.62,0-4.35,0.14-7.24,1.11c-1.52,0.55-5.93,2.2-5.93,7.1c0,4.89,4.76,8.41,12.13,8.41c6.61,0,10.13-3.18,10.13-7.45
		C308.22,116.7,305.95,114.85,300.71,111.12z M302.71,98.03c1.58-1.59,1.72-3.79,1.72-5.03c0-4.96-2.96-12.68-8.68-12.68
		c-1.79,0-3.72,0.89-4.83,2.28c-1.17,1.45-1.52,3.31-1.52,5.1c0,4.62,2.69,12.27,8.62,12.27C299.75,99.96,301.6,99.13,302.71,98.03z
		"/>
	<path style="fill:#F9F9F9;" d="M262.22,110.02c-10.94,0-16.79-8.53-16.79-16.24c0-9.01,7.36-16.72,17.82-16.72
		c10.11,0,16.44,7.91,16.44,16.24C279.69,101.41,273.43,110.02,262.22,110.02z M270.82,104.45c1.65-2.2,2.07-4.96,2.07-7.64
		c0-6.06-2.89-17.62-11.42-17.62c-2.27,0-4.54,0.9-6.19,2.34c-2.68,2.41-3.17,5.43-3.17,8.4c0,6.81,3.37,18.02,11.7,18.02
		C266.48,107.95,269.24,106.65,270.82,104.45z"/>
	<path style="fill:#F9F9F9;" d="M224.92,110.02c-10.94,0-16.79-8.53-16.79-16.24c0-9.01,7.36-16.72,17.82-16.72
		c10.11,0,16.44,7.91,16.44,16.24C242.4,101.41,236.14,110.02,224.92,110.02z M233.52,104.45c1.65-2.2,2.07-4.96,2.07-7.64
		c0-6.06-2.89-17.62-11.42-17.62c-2.27,0-4.54,0.9-6.19,2.34c-2.68,2.41-3.17,5.43-3.17,8.4c0,6.81,3.37,18.02,11.7,18.02
		C229.19,107.95,231.94,106.65,233.52,104.45z"/>
	<path style="fill:#F9F9F9;" d="M202.87,108.94l-9.89,2.28c-4.01,0.62-7.61,1.17-11.41,1.17c-19.1,0-26.36-14.04-26.36-25.04
		c0-13.42,10.31-25.87,27.95-25.87c3.74,0,7.33,0.55,10.58,1.45c5.19,1.45,7.61,3.25,9.13,4.29l-5.74,5.46l-2.42,0.56l1.73-2.77
		c-2.35-2.28-6.64-6.5-14.8-6.5c-10.93,0-19.16,8.3-19.16,20.41c0,13,9.41,25.25,24.49,25.25c4.43,0,6.71-0.9,8.79-1.73V96.76
		l-10.44,0.55l5.53-2.98h14.67l-1.8,1.73c-0.49,0.42-0.55,0.56-0.69,1.11c-0.07,0.62-0.14,2.63-0.14,3.32v8.45H202.87z"/>
	<path style="fill:#F9F9F9;" d="M327.47,106.95c-2.28-0.21-2.76-0.62-2.76-3.32v-0.76v-38.4c0.01-0.15,0.02-0.3,0.04-0.45
		c0.28-2.42,0.97-2.83,3.12-4.08h-9.9l-5.19,2.49h5.29v0.03v-0.03v40.42v2.29c0,1.38-0.27,1.59-1.87,3.66h12.25l2.56-1.52
		C329.83,107.15,328.65,107.09,327.47,106.95z"/>
	<path style="fill:#F9F9F9;" d="M355.62,107.58c-0.75,0.41-1.51,0.9-2.26,1.24c-2.27,1.03-4.61,1.31-6.67,1.31
		c-2.19,0-5.63-0.14-9.14-2.68c-4.87-3.44-7-9.35-7-14.5c0-10.65,8.66-15.87,15.73-15.87c2.47,0,5.02,0.62,7.08,1.92
		c3.43,2.26,4.33,5.22,4.8,6.8l-16.14,6.53l-5.29,0.41c1.71,8.72,7.62,13.8,14.15,13.8c3.5,0,6.05-1.23,8.38-2.4L355.62,107.58z
		 M349.16,87.11c1.3-0.48,1.99-0.89,1.99-1.85c0-2.75-3.09-5.91-6.8-5.91c-2.75,0-7.9,2.13-7.9,9.55c0,1.17,0.14,2.4,0.21,3.64
		L349.16,87.11z"/>
	<g>
		<path style="fill:#F9F9F9;" d="M362.25,77.55v4.53h-0.55v-4.53h-1.5v-0.47h3.55v0.47H362.25z"/>
		<path style="fill:#F9F9F9;" d="M368.43,82.08V77.5h-0.03l-1.4,4.58h-0.43l-1.41-4.58h-0.02v4.58h-0.5v-5h0.86l1.27,4.04h0.02
			l1.25-4.04h0.87v5H368.43z"/>
	</g>
</g>
<g>
	<path style="fill:#FCFCFD;" d="M168.95,48.01h-3.44c0-0.47-0.33-1.81-0.98-4.02h-4.96c-0.67,2.17-1.01,3.51-1.01,4.02h-3.23
		c0-0.28,0.84-2.57,2.51-6.88c1.67-4.3,2.51-6.67,2.51-7.11h4.06c0,0.41,0.76,2.74,2.27,7.01C168.19,45.3,168.95,47.63,168.95,48.01
		z M163.99,41.94c-1.22-3.7-1.84-5.69-1.84-5.99h-0.17c0,0.28-0.63,2.28-1.9,5.99H163.99z"/>
	<path style="fill:#FCFCFD;" d="M182.8,48.01h-2.65c0-0.29-0.98-1.84-2.95-4.65c-2.06-2.96-3.24-4.98-3.52-6.07h-0.17
		c0.18,1.57,0.27,2.99,0.27,4.25c0,1.77,0.05,3.92,0.15,6.47h-2.64c0.11-2.22,0.16-4.66,0.16-7.32c0-2.61-0.05-4.84-0.16-6.67h3.19
		c0,0.38,0.88,1.89,2.65,4.54c1.88,2.81,2.96,4.72,3.24,5.73h0.16c-0.17-1.6-0.26-3.03-0.26-4.3c0-1.94-0.05-3.93-0.15-5.97h2.69
		c-0.1,1.78-0.15,4-0.15,6.67C182.65,43.39,182.7,45.83,182.8,48.01z"/>
	<path style="fill:#FCFCFD;" d="M198.37,40.54c0,2.03-0.65,3.81-1.96,5.33c-1.3,1.52-3.13,2.28-5.48,2.28
		c-1.06,0-2.52-0.04-4.38-0.13c0.09-2.16,0.14-4.6,0.14-7.32c0-2.61-0.05-4.83-0.14-6.67h1.88c0.31,0,0.77-0.01,1.38-0.03
		c0.61-0.02,1.01-0.03,1.19-0.03c2.58,0,4.46,0.64,5.62,1.93C197.79,37.19,198.37,38.73,198.37,40.54z M195.44,41
		c0-1.38-0.4-2.53-1.2-3.48c-0.8-0.94-2.03-1.41-3.67-1.41c-0.31,0-0.73,0.03-1.27,0.1c0.07,1.43,0.11,2.93,0.11,4.49
		c0,1.71,0.04,3.41,0.11,5.09c0.47,0.09,0.93,0.14,1.4,0.14c1.54,0,2.68-0.48,3.42-1.43C195.07,43.54,195.44,42.37,195.44,41z"/>
	<path style="fill:#FCFCFD;" d="M212.73,48.01h-3.18c-0.83-2.54-1.47-4.1-1.91-4.69s-1.16-0.89-2.15-0.89c-0.42,0-0.81,0-1.19,0.01
		c0,1.84,0.03,3.7,0.1,5.58h-2.99c0.09-2.16,0.14-4.6,0.14-7.32c0-2.61-0.05-4.83-0.14-6.67h1.86c0.21,0,0.66-0.01,1.35-0.03
		c0.68-0.02,1.32-0.03,1.9-0.03c3.29,0,4.93,1.12,4.93,3.37c0,1.78-0.94,3.03-2.81,3.73v0.16c0.72,0.2,1.36,0.76,1.9,1.69
		C211.07,43.84,211.8,45.54,212.73,48.01z M208.7,38.13c0-1.42-0.92-2.14-2.75-2.14c-0.67,0-1.27,0.05-1.78,0.15
		c0.08,1.11,0.12,2.56,0.12,4.34c0.39,0.01,0.73,0.02,1,0.02C207.56,40.51,208.7,39.71,208.7,38.13z"/>
	<path style="fill:#FCFCFD;" d="M228.13,40.76c0,2.2-0.67,4.02-2.02,5.47c-1.35,1.45-3.01,2.17-5,2.17c-1.89,0-3.47-0.66-4.75-1.99
		c-1.27-1.33-1.91-3.02-1.91-5.06c0-2.2,0.67-4.02,2.02-5.47s3.01-2.17,5-2.17c1.89,0,3.47,0.66,4.75,1.99
		C227.49,37.02,228.13,38.71,228.13,40.76z M225.16,41.07c0-1.5-0.38-2.71-1.15-3.64c-0.77-0.93-1.71-1.4-2.84-1.4
		c-1.05,0-1.93,0.47-2.66,1.41s-1.1,2.12-1.1,3.56c0,1.49,0.38,2.7,1.15,3.64c0.77,0.93,1.71,1.4,2.83,1.4
		c1.05,0,1.93-0.47,2.66-1.41C224.8,43.68,225.16,42.5,225.16,41.07z"/>
	<path style="fill:#FCFCFD;" d="M234.2,48.01h-3.04c0.09-2.22,0.14-4.66,0.14-7.32c0-2.61-0.05-4.84-0.14-6.67h3.04
		c-0.09,1.8-0.14,4.03-0.14,6.67C234.06,43.4,234.11,45.84,234.2,48.01z"/>
	<path style="fill:#FCFCFD;" d="M249.77,40.54c0,2.03-0.65,3.81-1.96,5.33c-1.3,1.52-3.13,2.28-5.48,2.28
		c-1.06,0-2.52-0.04-4.38-0.13c0.09-2.16,0.14-4.6,0.14-7.32c0-2.61-0.05-4.83-0.14-6.67h1.88c0.31,0,0.77-0.01,1.38-0.03
		c0.61-0.02,1.01-0.03,1.19-0.03c2.58,0,4.46,0.64,5.62,1.93C249.19,37.19,249.77,38.73,249.77,40.54z M246.84,41
		c0-1.38-0.4-2.53-1.2-3.48c-0.8-0.94-2.03-1.41-3.67-1.41c-0.31,0-0.73,0.03-1.27,0.1c0.07,1.43,0.11,2.93,0.11,4.49
		c0,1.71,0.04,3.41,0.11,5.09c0.47,0.09,0.93,0.14,1.4,0.14c1.54,0,2.68-0.48,3.42-1.43C246.47,43.54,246.84,42.37,246.84,41z"/>
	<path style="fill:#FCFCFD;" d="M270.43,48.01h-3.44c0-0.47-0.33-1.81-0.98-4.02h-4.96c-0.67,2.17-1.01,3.51-1.01,4.02h-3.23
		c0-0.28,0.84-2.57,2.51-6.88c1.67-4.3,2.51-6.67,2.51-7.11h4.06c0,0.41,0.76,2.74,2.27,7.01C269.67,45.3,270.43,47.63,270.43,48.01
		z M265.46,41.94c-1.22-3.7-1.84-5.69-1.84-5.99h-0.17c0,0.28-0.63,2.28-1.9,5.99H265.46z"/>
	<path style="fill:#FCFCFD;" d="M282.96,37.69c0,1.71-0.64,2.98-1.91,3.79c-1.27,0.82-2.83,1.22-4.68,1.22
		c-0.34,0-0.58-0.01-0.72-0.02c0,1.35,0.04,3.12,0.12,5.33h-3.02c0.09-2.07,0.14-4.51,0.14-7.32c0-2.58-0.05-4.8-0.14-6.67h1.87
		c0.26,0,0.77-0.01,1.53-0.03c0.75-0.02,1.4-0.03,1.96-0.03c1.36,0,2.51,0.31,3.45,0.92C282.49,35.5,282.96,36.44,282.96,37.69z
		 M280.18,38.28c0-1.53-1.02-2.3-3.05-2.3c-0.51,0-1.05,0.05-1.61,0.16c0.08,1.35,0.12,2.89,0.12,4.6c0.18,0.01,0.39,0.02,0.62,0.02
		C278.88,40.76,280.18,39.94,280.18,38.28z"/>
	<path style="fill:#FCFCFD;" d="M295.84,37.69c0,1.71-0.64,2.98-1.91,3.79c-1.27,0.82-2.83,1.22-4.68,1.22
		c-0.34,0-0.58-0.01-0.72-0.02c0,1.35,0.04,3.12,0.12,5.33h-3.02c0.09-2.07,0.14-4.51,0.14-7.32c0-2.58-0.05-4.8-0.14-6.67h1.87
		c0.26,0,0.77-0.01,1.53-0.03c0.75-0.02,1.4-0.03,1.96-0.03c1.36,0,2.51,0.31,3.45,0.92C295.37,35.5,295.84,36.44,295.84,37.69z
		 M293.07,38.28c0-1.53-1.02-2.3-3.05-2.3c-0.51,0-1.05,0.05-1.61,0.16c0.08,1.35,0.12,2.89,0.12,4.6c0.18,0.01,0.39,0.02,0.62,0.02
		C291.76,40.76,293.07,39.94,293.07,38.28z"/>
	<path style="fill:#FCFCFD;" d="M316.9,40.76c0,2.2-0.67,4.02-2.02,5.47c-1.35,1.45-3.01,2.17-5,2.17c-1.89,0-3.47-0.66-4.75-1.99
		c-1.27-1.33-1.91-3.02-1.91-5.06c0-2.2,0.67-4.02,2.02-5.47c1.35-1.45,3.01-2.17,5-2.17c1.89,0,3.47,0.66,4.75,1.99
		C316.27,37.02,316.9,38.71,316.9,40.76z M313.94,41.07c0-1.5-0.38-2.71-1.15-3.64s-1.71-1.4-2.84-1.4c-1.05,0-1.93,0.47-2.66,1.41
		s-1.1,2.12-1.1,3.56c0,1.49,0.38,2.7,1.16,3.64c0.77,0.93,1.71,1.4,2.83,1.4c1.05,0,1.93-0.47,2.66-1.41
		C313.57,43.68,313.94,42.5,313.94,41.07z"/>
	<path style="fill:#FCFCFD;" d="M331.46,48.01h-2.65c0-0.29-0.98-1.84-2.95-4.65c-2.06-2.96-3.24-4.98-3.52-6.07h-0.17
		c0.18,1.57,0.27,2.99,0.27,4.25c0,1.77,0.05,3.92,0.15,6.47h-2.64c0.11-2.22,0.16-4.66,0.16-7.32c0-2.61-0.05-4.84-0.16-6.67h3.19
		c0,0.38,0.88,1.89,2.65,4.54c1.88,2.81,2.96,4.72,3.24,5.73h0.16c-0.17-1.6-0.26-3.03-0.26-4.3c0-1.94-0.05-3.93-0.15-5.97h2.69
		c-0.1,1.78-0.15,4-0.15,6.67C331.31,43.39,331.36,45.83,331.46,48.01z"/>
</g>
</svg>
