<svg
width="81.177"
height="26.022"
viewBox="0 0 81.177 26.022"
>
<path
id="Path_101"
data-name="Path 101"
d="M766.13,2838.034c-.98.008-1.961.01-2.942.032-.112,0-.224.117-.336.18a4.269,4.269,0,0,0,.234.425,4.374,4.374,0,0,1,.306.364c.165.3.476.777.435.91a5.367,5.367,0,0,1-.636,1.2.974.974,0,0,1-.249.224.923.923,0,0,0,.285.089c.145,0,.292-.088.435-.066.293.045.583.137.875.21a10.62,10.62,0,0,1-.143,1.983c-.582,2.121-1.6,1.8-2.582,1.711-2.186-.209-4.371-.491-6.554-.77-1.891-.241-3.782-.494-5.67-.787-1.744-.27-3.484-.622-5.228-.9-1.806-.287-3.615-.51-5.422-.793-1.476-.231-2.948-.571-4.426-.75-1.577-.192-3.159-.307-4.739-.355a44.1,44.1,0,0,0-4.555.083c-1.6.119-3.19.384-4.785.586a1.457,1.457,0,0,1-.25.035c-1.556-.079-3.115-.27-4.669-.216-1.785.062-3.565.363-5.348.514-.683.058-1.37-.02-2.055-.018-1.663.006-3.326.063-4.989.019a27.979,27.979,0,0,0-3.907-.239,22.776,22.776,0,0,1-4.356-.414,16.209,16.209,0,0,1-2.236-.451c-.437-.1-.587-.5-.483-1.236a1.521,1.521,0,0,0,.014-.452c-.58-.405-.293-.75.022-1.045.382-.358.779-.666,1.168-1a1.867,1.867,0,0,0,.186-.232,2.842,2.842,0,0,0-.229-.253c-.1-.088-.209-.152-.313-.227a2.249,2.249,0,0,0,.261-.35,5.724,5.724,0,0,0,.546-1.187.669.669,0,0,0-.388-.886c-.367-.141-.741-.225-1.109-.358-.059-.021-.1-.168-.154-.258.06-.017.122-.058.18-.046a4.5,4.5,0,0,0,.805.156c.114,0,.227-.216.34-.334-.1-.158-.186-.425-.3-.456-.689-.2-1.383-.337-2.074-.5a1.089,1.089,0,0,1-.481-.19.9.9,0,0,1-.086-.482c.372-.506.722-1.089,1.278-.877a14.041,14.041,0,0,0,1.461.4c.082.022.183.088.245.034.521-.449.98.082,1.462.258a.186.186,0,0,0,.2-.113,4.874,4.874,0,0,0,.322-.952,4.474,4.474,0,0,0-.013-.862,4.018,4.018,0,0,0-.453.366,1.884,1.884,0,0,0-.207.387c0-.191-.009-.382-.011-.573-.006-.8.176-1.254.691-1.2a5.069,5.069,0,0,0,1.173-.023c.171-.022.509.375.472-.4.239-.007.574-.192.7.011.409.655.637.792,1.083.324.151-.159.311-.3.466-.443a5.287,5.287,0,0,0-.575-.037,3.6,3.6,0,0,0-.49.083c.013-.086.01-.224.041-.252a2.469,2.469,0,0,1,.625-.5c.21-.082.524.152.647-.035.726-1.1,1.636-.448,2.432-.814.125-.057.277.056.416.09a1.439,1.439,0,0,0-.25.364.781.781,0,0,0,.061.377,5.976,5.976,0,0,0,.712-.1,10.7,10.7,0,0,1,1.125-.191c1.011-.063,1.995.778,3.025.3.188-.088.414.027.619.086a2.731,2.731,0,0,1,.46.23,2.884,2.884,0,0,1-.5.334c-.16.064-.337.008-.5.071-.11.044-.206.2-.308.306a1.605,1.605,0,0,1,.287.073c.079.035.21.086.22.165.072.588.075,1.376.517.367.026.043.078.1.073.126a1.349,1.349,0,0,1-.11.452,3.968,3.968,0,0,1-.453.483,5.335,5.335,0,0,0,.7.21,1.441,1.441,0,0,0,.514-.04,1.506,1.506,0,0,0,.309-.14c-.062-.241-.11-.671-.187-.688-.293-.065-.564-.249-.434-.76.1-.38.448-.879.636-.821.941.292,1.838-.556,2.82-.009.644.36,1.429-.057,2.151-.1.113-.007.228.111.342.171a3.556,3.556,0,0,1-.294.675c-.523.685-1.069.049-1.6,0-.29-.026-.544-.145-.575.591,0,.107-.329.284-.483.231-.272-.1-.5-.069-.512.438a.884.884,0,0,0,.345.636,2.4,2.4,0,0,0,1.166.174,12.1,12.1,0,0,1,4.222,0,4.752,4.752,0,0,0,1.53-.11c.082-.012.228-.285.214-.385-.033-.238-.14-.621-.226-.63a1,1,0,0,0-.651.226.969.969,0,0,1-1.258.13c-.326-.225-.736-.056-1.105-.119a1.787,1.787,0,0,1-.507-.292c.1-.181.214-.349.3-.548a1.511,1.511,0,0,0,.106-.446c.061-.645.275-.808.63-.68.5.181,1.005.323,1.51.462.141.038.32.1.426-.01a3.344,3.344,0,0,1,2.9-.766c1.342.045,2.686.149,4.026.083,2.269-.112,4.536-.355,6.8-.505.824-.054,1.652.024,2.477-.006a10.189,10.189,0,0,0,1.157-.213c.518-.082,1.038-.132,1.557-.214.924-.147,1.846-.329,2.771-.452.495-.065.994-.032,1.491-.052.373-.014.746-.045,1.119-.065.721-.037,1.444-.028,2.162-.126a2.875,2.875,0,0,0,.922-.466c.135-.078.256-.3.387-.309a14.032,14.032,0,0,1,2.112-.039c.356.03.684.213,1.063.02.293-.15.648.051.976.1.079.012.173.093.235.046a3.5,3.5,0,0,1,2.694-1.013,16.944,16.944,0,0,0,2.256-.545c1.279-.247,2.565-.4,3.841-.671a20.3,20.3,0,0,0,1.977-.7,22.633,22.633,0,0,0,2.279-.725c.57-.257,1.091-.827,1.66-1.1a9.43,9.43,0,0,1,1.456-.334,11.428,11.428,0,0,1,1.367-.543,2.7,2.7,0,0,1,1.268.211,8.96,8.96,0,0,1-.033,1.183,3.5,3.5,0,0,1-.118.543,1.3,1.3,0,0,0,.363.1.653.653,0,0,0,.3-.131c.282-.18.526-.2.681.366a2.606,2.606,0,0,1,.046,1.558,4.252,4.252,0,0,1-1.725,2.538c-.356.288-.342.414-.045.959a.348.348,0,0,1,.016.193.8.8,0,0,1-.163.147l-.621.546a3.437,3.437,0,0,0,.733-.188c.676-.329,1.239-.052,1.658.923a1.184,1.184,0,0,1-.07.718c-.354.369-.891.329-.876,1.43,0,.2-.254.415-.391.623a4.414,4.414,0,0,1,.622.106,2.426,2.426,0,0,1,1.306,1.539.542.542,0,0,1,.012.3c-.319.437.011.362.117.423a10.935,10.935,0,0,1,1.032.563c.534.382.292,1.034.138,1.594-.4,1.444-1.145,1.92-2,2.014-1.124.122-2.248.216-3.373.322Zm-43.631-9.555c-.1-.049-.2-.147-.3-.138-.262.024-.769-.381-.481.741.015.057-.14.241-.216.366-.375-.806-.768-.3-1.174-.1-.146.072-.479.159-.228-.512.231-.619-.333-.31-.327-.711-.144.021-.347-.052-.419.083a5.338,5.338,0,0,0-.483,1.264,1.557,1.557,0,0,0,.111.83,8.644,8.644,0,0,0,1.471.289c.037.005.081-.144.121-.222-.384-.5-.051-.312.094-.29.175.027.349.083.525.1.41.044.82.085,1.23.1a1.779,1.779,0,0,0,.451-.1c-.121-.117-.244-.23-.365-.351s-.265-.274-.4-.411c.15-.036.3-.064.449-.11a1.854,1.854,0,0,0,.262-.129c-.043-.109-.081-.225-.129-.326-.065-.137-.138-.263-.207-.394.392,0,.715.046.589,1.017-.028.22.225.785.36.8a3.08,3.08,0,0,0,1.655-.124,1.045,1.045,0,0,1,1.2.244c.263.224.412.185.586-.091.657-1.041,1.388-.581,2.082-.2a.8.8,0,0,0,1.067-.066c.213-.2.563-.362.739-.191.484.471.88.347,1.258-.213.419-.619-.676-1.117-.074-1.785-.039-.022-.082-.074-.116-.06-.252.106-.645.094-.728.364-.342,1.112-.943.619-1.426.822a.156.156,0,0,1-.168-.087c-.2-.408-.2-.392-.432-.356a7.842,7.842,0,0,1-1.728.2c-.262-.018-.361-.13-.366.438-.005.492-.162.62-.383.17-.061-.124-.228-.252-.286-.2-.245.241-.417.2-.449-.309-.036-.588-.255-.479-.367-.242-.51,1.077-1.214.373-1.505-.024C723.409,2827.77,723,2827.936,722.5,2828.479Zm14.939-1.248-.3-.035a1.549,1.549,0,0,1,.278.277c.139.214.26.461.389.694-.184.155-.377.464-.55.429a5.55,5.55,0,0,1-.936-.5c-.143-.062-.418-.059-.442.048-.165.717-.5.165-.7.339a4.626,4.626,0,0,0-.561.987,2.95,2.95,0,0,1-.333.4c.152.042.315.164.455.112,1.005-.376,1.988-1.063,3.054-.5.061.031.194-.2.255-.359C738.4,2828.226,738.121,2827.369,737.438,2827.231Zm3.252,1.386c.611.376.293-.439.27-.717-.015-.179-.249-.28-.329-.481a1.713,1.713,0,0,1,.053-.537,5.065,5.065,0,0,1-.459.272c-.053.025-.119-.04-.18-.055-.113-.026-.226-.046-.34-.068.076.133.15.27.228.4a2.479,2.479,0,0,1,.216.365c.015.038-.063.184-.1.28-.567-.722-.911.37-1.375.5-.063.017-.1.248-.157.38.066.073.13.2.2.21a.9.9,0,0,0,.432-.023C739.664,2828.978,740.177,2828.793,740.69,2828.617Zm3.008-1.067a2.781,2.781,0,0,0-.492.016c-.046.008-.081.156-.121.24.182.211.368.607.546.6a7.865,7.865,0,0,0,1.521-.338c.665-.171,1.329-.346,1.992-.534.091-.026.173-.136.259-.208-.1-.036-.192-.112-.285-.1C745.978,2827.324,744.838,2827.439,743.7,2827.55Zm11.888-2.216c-.5.176-1.085.381-1.669.588-.2.071-.4.148-.6.222a5.049,5.049,0,0,0,.689.452c.107.048.239-.055.358-.108a7.354,7.354,0,0,1,1.02-.444c.163-.044.344.166.519.181a1,1,0,0,0,.54-.122c.075-.04.118-.254.176-.389a2.5,2.5,0,0,0-.446-.291A2.823,2.823,0,0,0,755.586,2825.334Zm5.568,13.417c.215-.05.5-.1.789-.191.089-.029.165-.171.246-.261-.1-.089-.2-.264-.293-.254-.744.083-1.487.2-2.229.315-.069.011-.133.12-.2.183.082.073.163.206.246.209C760.169,2838.769,760.623,2838.755,761.154,2838.751Z"
transform="translate(-690.523 -2819.343)"
fill="#fff"
/>
</svg>