<svg
width="102.238"
height="26.12"
viewBox="0 0 102.238 26.12"
>
<path
id="Path_91"
data-name="Path 91"
d="M332.962,2831.959c1.235-.028,2.47-.05,3.7-.092a1.259,1.259,0,0,0,.421-.186,4.351,4.351,0,0,0-.3-.421,4.727,4.727,0,0,1-.39-.357c-.212-.292-.609-.768-.559-.9a5.139,5.139,0,0,1,.785-1.209,1.2,1.2,0,0,1,.311-.229,1.476,1.476,0,0,0-.36-.083,4.151,4.151,0,0,1-.547.075c-.369-.039-.736-.125-1.1-.192a8.483,8.483,0,0,1,.155-1.986c.707-2.133,1.991-1.837,3.23-1.763,2.755.164,5.509.4,8.261.636,2.384.2,4.767.417,7.148.672,2.2.235,4.394.551,6.593.793,2.278.25,4.558.436,6.836.682,1.862.2,3.719.511,5.582.66q2.982.24,5.97.259c1.912.014,3.827-.033,5.734-.176,2.01-.152,4.012-.449,6.018-.683a2.25,2.25,0,0,1,.313-.04c1.961.047,3.926.206,5.882.121,2.246-.1,4.483-.435,6.726-.623.859-.072,1.725-.008,2.588-.024,2.094-.039,4.187-.131,6.281-.12a44.331,44.331,0,0,0,4.922.16,35.815,35.815,0,0,1,5.489.325,25.313,25.313,0,0,1,2.82.4c.551.088.746.492.624,1.226a1.18,1.18,0,0,0-.012.452c.735.394.378.745-.016,1.046-.476.366-.972.682-1.456,1.027a1.857,1.857,0,0,0-.233.236,3.36,3.36,0,0,0,.292.248c.128.085.265.148.4.22a2.392,2.392,0,0,0-.325.355,5.321,5.321,0,0,0-.674,1.2.646.646,0,0,0,.5.878c.464.133.935.21,1.4.335.074.02.131.167.2.255a.662.662,0,0,1-.226.05,6.969,6.969,0,0,0-1.015-.14c-.144,0-.283.221-.425.341.126.156.241.421.38.45.869.183,1.744.309,2.616.462a1.6,1.6,0,0,1,.608.181.741.741,0,0,1,.115.48c-.462.514-.9,1.1-1.6.9-.608-.173-1.229-.254-1.844-.372-.1-.02-.231-.084-.309-.029-.65.46-1.234-.062-1.843-.229a.254.254,0,0,0-.25.118,4.269,4.269,0,0,0-.393.958,3.5,3.5,0,0,0,.027.862,4.94,4.94,0,0,0,.566-.376,1.779,1.779,0,0,0,.255-.39c.007.191.017.381.021.572.018.8-.2,1.258-.854,1.216a8.027,8.027,0,0,0-1.477.047c-.215.026-.645-.365-.589.414-.3.012-.72.2-.882,0-.523-.646-.811-.779-1.367-.3-.189.162-.388.3-.582.452.242.01.484.036.725.026a5.9,5.9,0,0,0,.615-.093c-.015.086-.01.223-.048.252a3.052,3.052,0,0,1-.781.508c-.263.087-.661-.142-.814.048-.9,1.117-2.053.481-3.051.863-.157.06-.35-.049-.526-.08a1.515,1.515,0,0,0,.312-.369.661.661,0,0,0-.082-.377c-.3.017-.6.072-.9.118-.471.073-.941.182-1.413.213-1.272.085-2.522-.737-3.812-.235a1.45,1.45,0,0,1-.781-.073.371.371,0,1,1,.039-.565c.2-.067.423-.015.624-.081.139-.046.256-.2.384-.312a2.473,2.473,0,0,1-.362-.068c-.1-.033-.266-.082-.279-.16-.1-.586-.111-1.374-.655-.357-.033-.042-.1-.1-.1-.123a1.169,1.169,0,0,1,.133-.455,4.647,4.647,0,0,1,.565-.492,8.058,8.058,0,0,0-.882-.2,2.274,2.274,0,0,0-.647.051,2.092,2.092,0,0,0-.387.146c.08.239.147.669.244.684.369.059.712.237.555.751-.117.382-.553.888-.791.834-1.188-.273-2.306.593-3.549.066-.816-.346-1.8.086-2.708.147-.141.009-.288-.106-.432-.164a3.193,3.193,0,0,1,.363-.681c.648-.7,1.345-.071,2.019-.033.364.02.686.134.716-.6,0-.108.411-.291.606-.241.343.089.625.059.639-.448a.86.86,0,0,0-.443-.629,3.731,3.731,0,0,0-1.47-.15,19.2,19.2,0,0,1-5.315.091,7.459,7.459,0,0,0-1.925.14.522.522,0,0,0-.265.389c.045.238.184.619.292.626a1.479,1.479,0,0,0,.818-.24,1.461,1.461,0,0,1,1.581-.155c.413.218.927.041,1.394.1a2.418,2.418,0,0,1,.641.283,5.828,5.828,0,0,0-.373.553,1.246,1.246,0,0,0-.128.448c-.069.647-.337.814-.785.693-.632-.17-1.27-.3-1.907-.431-.177-.035-.4-.092-.537.019-1.131.941-2.389.838-3.641.825-1.691-.018-3.385-.095-5.071,0-2.856.158-5.705.447-8.559.643-1.037.071-2.08.01-3.119.056-.486.022-.968.169-1.454.237-.652.092-1.306.153-1.957.246-1.162.165-2.32.366-3.484.508-.622.075-1.251.052-1.876.082-.47.022-.939.061-1.408.087-.907.052-1.818.058-2.721.17a4.084,4.084,0,0,0-1.154.485c-.169.081-.319.306-.484.317a22.289,22.289,0,0,1-2.659.083,2.692,2.692,0,0,0-1.337,0c-.368.156-.818-.038-1.231-.079-.1-.01-.219-.09-.3-.041a5.14,5.14,0,0,1-3.38,1.068,25.867,25.867,0,0,0-2.833.59c-1.607.274-3.224.449-4.827.75-.837.156-1.651.509-2.481.742-.952.266-1.926.42-2.86.771-.715.268-1.363.849-2.076,1.137a14.342,14.342,0,0,1-1.829.364,16.685,16.685,0,0,1-1.714.571,4.228,4.228,0,0,1-1.6-.185,7.2,7.2,0,0,1,.027-1.184,2.925,2.925,0,0,1,.143-.545,1.989,1.989,0,0,0-.459-.093.935.935,0,0,0-.378.137c-.353.186-.66.212-.863-.353a2.1,2.1,0,0,1-.076-1.556,4.424,4.424,0,0,1,2.14-2.572c.444-.3.425-.422.045-.961a.277.277,0,0,1-.023-.193.973.973,0,0,1,.2-.15l.775-.558a5.2,5.2,0,0,0-.922.2,1.55,1.55,0,0,1-2.1-.889.964.964,0,0,1,.08-.719c.441-.377,1.118-.347,1.085-1.448-.006-.2.314-.42.484-.631a6.661,6.661,0,0,1-.783-.093,2.692,2.692,0,0,1-1.665-1.512.438.438,0,0,1-.018-.3c.4-.444-.018-.362-.153-.421-.433-.188-.884-.311-1.3-.542-.677-.371-.381-1.028-.194-1.591a2.714,2.714,0,0,1,2.5-2.055c1.413-.145,2.828-.261,4.242-.39Zm55.051,8.667c.127.047.257.143.381.132.329-.029.973.366.6-.751-.019-.056.174-.244.268-.37.482.8.971.287,1.479.081.183-.075.6-.168.294.508-.284.623.423.3.421.7.18-.025.437.044.525-.092a4.749,4.749,0,0,0,.593-1.273,1.271,1.271,0,0,0-.15-.828,13.4,13.4,0,0,0-1.856-.259c-.047-.005-.1.145-.15.224.491.489.069.311-.114.291-.221-.023-.441-.075-.662-.09-.516-.036-1.033-.069-1.55-.076a2.761,2.761,0,0,0-.567.107c.155.114.311.225.464.343.17.131.337.269.505.4-.188.039-.377.07-.564.12a2.732,2.732,0,0,0-.328.133c.055.109.105.224.167.324.083.136.176.26.265.39-.493.011-.9-.031-.755-1,.034-.221-.292-.78-.463-.791a4.823,4.823,0,0,0-2.081.157,1.562,1.562,0,0,1-1.509-.22c-.334-.219-.521-.177-.737.1-.814,1.054-1.739.609-2.618.247a1.2,1.2,0,0,0-1.343.087c-.265.2-.7.373-.928.206a1.015,1.015,0,0,0-1.581.238c-.52.629.864,1.1.116,1.784.049.021.1.072.145.058.317-.112.812-.107.913-.379.416-1.119,1.18-.638,1.785-.851a.212.212,0,0,1,.212.084c.26.4.254.388.549.347a12.34,12.34,0,0,1,2.173-.232c.33.014.456.123.456-.444,0-.493.2-.624.479-.179.078.123.291.248.363.19.3-.245.523-.2.569.3.053.587.327.475.465.235.628-1.088,1.524-.4,1.9-.007C386.875,2841.354,387.385,2841.179,388.013,2840.626Zm-18.793,1.552.38.029a1.85,1.85,0,0,1-.353-.271c-.177-.212-.333-.456-.5-.687.229-.158.469-.471.686-.44a7.815,7.815,0,0,1,1.185.478c.18.059.527.05.556-.057.2-.72.633-.175.881-.353.282-.2.456-.67.694-1a3.264,3.264,0,0,1,.414-.408c-.192-.039-.4-.158-.574-.1-1.261.4-2.489,1.1-3.839.566-.077-.03-.241.207-.317.364C368,2841.2,368.358,2842.053,369.22,2842.178Zm-4.112-1.32c-.774-.364-.363.445-.33.722.021.179.316.275.419.475.055.107-.035.354-.06.538.191-.1.379-.206.575-.282.066-.026.15.038.227.051.143.025.286.042.429.062-.1-.132-.193-.267-.292-.4a2.453,2.453,0,0,1-.277-.36c-.019-.037.078-.185.121-.282.724.711,1.144-.388,1.726-.526.079-.018.129-.25.193-.383-.085-.072-.166-.2-.254-.206a1.423,1.423,0,0,0-.544.031C366.395,2840.476,365.752,2840.671,365.108,2840.858Zm-3.774,1.128a4.446,4.446,0,0,0,.62-.026c.057-.009.1-.158.149-.243-.232-.207-.471-.6-.7-.587a12.036,12.036,0,0,0-1.91.369c-.835.184-1.67.373-2.5.574a1.233,1.233,0,0,0-.324.213,1.074,1.074,0,0,0,.361.1C358.467,2842.258,359.9,2842.12,361.334,2841.986Zm-14.939,2.457c.628-.186,1.361-.4,2.094-.622.25-.075.5-.156.75-.234a6.794,6.794,0,0,0-.873-.437c-.135-.046-.3.06-.449.115a10.777,10.777,0,0,1-1.279.465c-.2.047-.435-.159-.655-.171a1.539,1.539,0,0,0-.679.134c-.094.04-.145.256-.216.392a3.335,3.335,0,0,0,.564.282A4.329,4.329,0,0,0,346.395,2844.443Zm-7.176-13.3c-.271.054-.634.11-.991.207-.112.031-.206.174-.307.266.124.087.254.26.372.248.936-.1,1.869-.227,2.8-.361.088-.012.166-.122.249-.187-.1-.071-.209-.2-.313-.2C340.459,2831.1,339.886,2831.126,339.219,2831.141Z"
transform="translate(-325.993 -2824.558)"
fill="#fff"
/>
</svg>