<svg x="0px" y="0px" viewBox="0 0 17.25 28.859" ><path fill="#ffffff" d="M16.674,17.334c-0.772-1.993-3.979-5.487-6.321-8.038c-0.571-0.622-1.064-1.159-1.45-1.6L8.665,7.427 l-0.236,0.27C8.037,8.146,7.482,8.75,6.838,9.449L6.486,9.832l1.948,2.29c1.133,1.24,4.582,5.012,5.119,6.4 c0.621,1.575,0.401,3.357-0.584,4.734c-0.985,1.447-2.625,2.309-4.375,2.3c-1.723,0.01-3.339-0.837-4.311-2.26 c-0.702-0.987-1.024-2.194-0.908-3.4l0.014-0.135l-2.617-2.9l-0.185,0.473c-1.015,2.604-0.664,5.542,0.937,7.833 c2.736,3.914,8.126,4.868,12.04,2.132c0.844-0.59,1.575-1.325,2.16-2.172C17.341,22.858,17.699,19.924,16.674,17.334z"></path><path fill="#68DB7E" d="M6.901,19.571c0.571,0.622,1.065,1.159,1.451,1.6l0.237,0.269l0.237-0.271 c0.391-0.448,0.947-1.052,1.59-1.751l0.349-0.386l-1.947-2.29c-1.133-1.24-4.583-5.012-5.12-6.4 C3.079,8.766,3.299,6.985,4.282,5.608c0.985-1.446,2.625-2.308,4.375-2.3c1.723-0.01,3.339,0.837,4.311,2.26 c0.702,0.987,1.024,2.194,0.908,3.4l-0.013,0.135l2.616,2.9l0.185-0.473c1.015-2.604,0.664-5.542-0.936-7.833 C12.994-0.218,7.604-1.176,3.689,1.558c-0.846,0.591-1.58,1.329-2.166,2.178c-1.615,2.269-1.971,5.202-0.946,7.792 C1.352,13.527,4.56,17.02,6.901,19.571z"></path></svg>