<?xml version="1.0" encoding="iso-8859-1"?>
<!-- Generator: Adobe Illustrator 25.2.3, SVG Export Plug-In . SVG Version: 6.00 Build 0)  -->
<svg version="1.1" id="Layer_1" xmlns="http://www.w3.org/2000/svg" xmlns:xlink="http://www.w3.org/1999/xlink" x="0px" y="0px"
	 viewBox="0 0 473.672 792.392" style="enable-background:new 0 0 473.672 792.392;" xml:space="preserve">
<g>
	<path style="fill:#FFFFFF;" d="M457.788,475.834c-21.189-54.714-109.259-150.647-173.562-220.698
		c-15.683-17.079-29.221-31.831-39.825-43.852l-6.527-7.402l-6.488,7.434c-10.755,12.321-26.008,28.899-43.671,48.096l-9.672,10.513
		l53.475,62.89c31.12,34.038,125.827,137.613,140.584,175.71c17.001,43.424,11.155,90.799-16.04,129.981
		c-27.86,40.142-71.644,63.162-120.126,63.162c-47.854,0-91.005-22.623-118.386-62.074c-19.549-28.166-28.168-60.456-24.921-93.385
		l0.364-3.702l-71.839-79.693l-5.088,12.991c-27.902,71.277-18.288,151.679,25.72,215.085
		c44.111,63.557,116.693,101.503,194.15,101.503c78.073,0,151.305-38.351,195.892-102.59
		C476.411,625.563,485.87,547.565,457.788,475.834z"/>
	<path style="fill:#020203;" d="M189.446,537.253c15.683,17.081,29.221,31.831,39.824,43.854l6.527,7.399l6.488-7.434
		c10.755-12.321,26.008-28.894,43.671-48.091l9.672-10.518l-53.475-62.885c-31.12-34.038-125.832-137.623-140.584-175.712
		c-17.001-43.422-11.155-90.799,16.04-129.981c27.86-40.142,71.644-63.164,120.126-63.164c47.854,0,91.005,22.626,118.386,62.077
		c19.549,28.163,28.168,60.459,24.921,93.385l-0.364,3.702l71.839,79.691l5.088-12.988c27.902-71.275,18.288-151.681-25.72-215.085
		C387.774,37.943,315.192,0,237.735,0C159.662,0,86.43,38.351,41.843,102.593C-2.739,166.829-12.199,244.826,15.884,316.56
		C37.073,371.269,125.143,467.205,189.446,537.253z"/>
</g>
</svg>
